<?xml version="1.0" encoding="UTF-8"?>
<svg width="20px" height="20px" viewBox="0 0 20 20" version="1.1" xmlns="http://www.w3.org/2000/svg" xmlns:xlink="http://www.w3.org/1999/xlink">
    <!-- Generator: Sketch 51.1 (57501) - http://www.bohemiancoding.com/sketch -->
    <title>trash_normal</title>
    <desc>Created with Sketch.</desc>
    <defs></defs>
    <g id="Page-1" stroke="none" stroke-width="1" fill="none" fill-rule="evenodd" stroke-linecap="round" stroke-linejoin="round">
        <g id="补传材料-编辑" transform="translate(-648.000000, -240.000000)" stroke="#FFFFFF" stroke-width="2">
            <g id="card" transform="translate(128.000000, 140.000000)">
                <g id="list_hover" transform="translate(304.000000, 96.000000)">
                    <g id="trash_normal" transform="translate(217.000000, 5.000000)">
                        <polyline id="Shape" points="0 4 2 4 18 4"></polyline>
                        <path d="M15,4 L15,16.25 C15,17.2164983 14.2324881,18 13.2857143,18 L4.71428571,18 C3.76751186,18 3,17.2164983 3,16.25 L3,4 M5,4 L5,2 C5,0.8954305 5.8954305,0 7,0 L11,0 C12.1045695,0 13,0.8954305 13,2 L13,4" id="Shape"></path>
                        <path d="M7,9 L7,14" id="Shape"></path>
                        <path d="M11,9 L11,14" id="Shape"></path>
                    </g>
                </g>
            </g>
        </g>
    </g>
</svg>